<svg viewBox="0 0 148 60" fill="none" xmlns="http://www.w3.org/2000/svg">
    <g opacity="0.6">
        <g opacity="0.6">
            <path opacity="0.6" d="M22.8655 4.41113L31.503 14.1555" stroke="#F8B133" stroke-width="0.65" stroke-miterlimit="10"/>
            <path opacity="0.6" d="M12.787 21.4254L35.3385 21.4277" stroke="#F8B133" stroke-width="0.65" stroke-miterlimit="10"/>
            <path opacity="0.6" d="M20.705 29.7144L31.9507 25.8882" stroke="#F8B133" stroke-width="0.65" stroke-miterlimit="10"/>
            <path opacity="0.6" d="M46.1542 22.5366L39.0112 31.7883" stroke="#F8B133" stroke-width="0.65" stroke-miterlimit="10"/>
            <path opacity="0.6" d="M29.5096 50.1095L39.0113 31.7883" stroke="#F8B133" stroke-width="0.65" stroke-miterlimit="10"/>
            <path opacity="0.6" d="M20.705 29.7145L39.0112 31.7884" stroke="#F8B133" stroke-width="0.65" stroke-miterlimit="10"/>
            <path opacity="0.6" d="M31.9507 25.8882L29.5096 50.1095" stroke="#F8B133" stroke-width="0.65" stroke-miterlimit="10"/>
            <path opacity="0.6" d="M35.3384 21.4277L39.0113 31.7884" stroke="#F8B133" stroke-width="0.65" stroke-miterlimit="10"/>
            <path opacity="0.6" d="M31.9507 25.8882L46.1542 22.5366" stroke="#F8B133" stroke-width="0.65" stroke-miterlimit="10"/>
            <path opacity="0.6" d="M12.787 21.4255L5.03149 6.04871" stroke="#F8B133" stroke-width="0.65" stroke-miterlimit="10"/>
            <path opacity="0.6" d="M22.8655 4.41113L12.787 21.4255" stroke="#F8B133" stroke-width="0.65" stroke-miterlimit="10"/>
            <path opacity="0.6" d="M45.0584 41.238L29.5096 50.1096" stroke="#F8B133" stroke-width="0.65" stroke-miterlimit="10"/>
            <path opacity="0.6" d="M46.1542 22.5366L45.0584 41.238" stroke="#F8B133" stroke-width="0.65" stroke-miterlimit="10"/>
            <path opacity="0.6" d="M31.503 14.1554L31.9507 25.8882" stroke="#F8B133" stroke-width="0.65" stroke-miterlimit="10"/>
            <path opacity="0.6" d="M4.67065 6.26685L35.3384 21.4277" stroke="#F8B133" stroke-width="0.65" stroke-miterlimit="10"/>
        </g>
        <g opacity="0.6">
            <path opacity="0.6" d="M32.1667 25.526H31.7369C31.6569 25.526 31.5921 25.5915 31.5921 25.6722V26.1063C31.5921 26.1871 31.6569 26.2526 31.7369 26.2526H32.1667C32.2467 26.2526 32.3115 26.1871 32.3115 26.1063V25.6722C32.3115 25.5915 32.2467 25.526 32.1667 25.526Z" fill="#F8B133"/>
            <path opacity="0.6" d="M35.5545 21.0632H35.1246C35.0447 21.0632 34.9799 21.1287 34.9799 21.2094V21.6436C34.9799 21.7243 35.0447 21.7898 35.1246 21.7898H35.5545C35.6345 21.7898 35.6993 21.7243 35.6993 21.6436V21.2094C35.6993 21.1287 35.6345 21.0632 35.5545 21.0632Z" fill="#F8B133"/>
            <path opacity="0.6" d="M31.7191 13.791H31.2892C31.2092 13.791 31.1444 13.8565 31.1444 13.9372V14.3714C31.1444 14.4521 31.2092 14.5176 31.2892 14.5176H31.7191C31.799 14.5176 31.8638 14.4521 31.8638 14.3714V13.9372C31.8638 13.8565 31.799 13.791 31.7191 13.791Z" fill="#F8B133"/>
            <path opacity="0.6" d="M23.0793 4.04895H22.6495C22.5695 4.04895 22.5047 4.11441 22.5047 4.19516V4.62929C22.5047 4.71004 22.5695 4.7755 22.6495 4.7755H23.0793C23.1593 4.7755 23.2241 4.71004 23.2241 4.62929V4.19516C23.2241 4.11441 23.1593 4.04895 23.0793 4.04895Z" fill="#F8B133"/>
            <path opacity="0.6" d="M13.0008 21.061H12.5709C12.491 21.061 12.4261 21.1265 12.4261 21.2072V21.6414C12.4261 21.7221 12.491 21.7876 12.5709 21.7876H13.0008C13.0807 21.7876 13.1456 21.7221 13.1456 21.6414V21.2072C13.1456 21.1265 13.0807 21.061 13.0008 21.061Z" fill="#F8B133"/>
            <path opacity="0.6" d="M20.9188 29.35H20.489C20.409 29.35 20.3442 29.4154 20.3442 29.4962V29.9303C20.3442 30.0111 20.409 30.0765 20.489 30.0765H20.9188C20.9988 30.0765 21.0636 30.0111 21.0636 29.9303V29.4962C21.0636 29.4154 20.9988 29.35 20.9188 29.35Z" fill="#F8B133"/>
            <path opacity="0.6" d="M46.368 22.1722H45.9382C45.8582 22.1722 45.7934 22.2377 45.7934 22.3185V22.7526C45.7934 22.8333 45.8582 22.8988 45.9382 22.8988H46.368C46.448 22.8988 46.5128 22.8333 46.5128 22.7526V22.3185C46.5128 22.2377 46.448 22.1722 46.368 22.1722Z" fill="#F8B133"/>
            <path opacity="0.6" d="M39.2273 31.424H38.7974C38.7175 31.424 38.6526 31.4894 38.6526 31.5702V32.0043C38.6526 32.085 38.7175 32.1505 38.7974 32.1505H39.2273C39.3073 32.1505 39.3721 32.085 39.3721 32.0043V31.5702C39.3721 31.4894 39.3073 31.424 39.2273 31.424Z" fill="#F8B133"/>
            <path opacity="0.6" d="M29.7234 49.7451H29.2935C29.2136 49.7451 29.1487 49.8106 29.1487 49.8913V50.3255C29.1487 50.4062 29.2136 50.4717 29.2935 50.4717H29.7234C29.8033 50.4717 29.8682 50.4062 29.8682 50.3255V49.8913C29.8682 49.8106 29.8033 49.7451 29.7234 49.7451Z" fill="#F8B133"/>
            <path opacity="0.6" d="M5.2453 5.68652H4.81543C4.73547 5.68652 4.67065 5.75198 4.67065 5.83273V6.26686C4.67065 6.34761 4.73547 6.41307 4.81543 6.41307H5.2453C5.32526 6.41307 5.39007 6.34761 5.39007 6.26686V5.83273C5.39007 5.75198 5.32526 5.68652 5.2453 5.68652Z" fill="#F8B133"/>
            <path opacity="0.6" d="M45.2744 40.8759H44.8445C44.7646 40.8759 44.6998 40.9413 44.6998 41.0221V41.4562C44.6998 41.5369 44.7646 41.6024 44.8445 41.6024H45.2744C45.3544 41.6024 45.4192 41.5369 45.4192 41.4562V41.0221C45.4192 40.9413 45.3544 40.8759 45.2744 40.8759Z" fill="#F8B133"/>
        </g>
    </g>
    <g opacity="0.7">
        <g opacity="0.7">
            <path opacity="0.7" d="M8.59735 2.92871L11.2144 9.07852" stroke="#43AC4C" stroke-width="0.65" stroke-miterlimit="10"/>
            <path opacity="0.7" d="M2.87988 18.8048L11.2145 9.07849" stroke="#43AC4C" stroke-width="0.65" stroke-miterlimit="10"/>
            <path opacity="0.7" d="M17.8764 15.8266L11.2145 9.07849" stroke="#43AC4C" stroke-width="0.65" stroke-miterlimit="10"/>
            <path opacity="0.7" d="M36.285 11.2177L17.8763 15.8266" stroke="#43AC4C" stroke-width="0.65" stroke-miterlimit="10"/>
            <path opacity="0.7" d="M27.6319 25.8881L17.8763 15.8267" stroke="#43AC4C" stroke-width="0.65" stroke-miterlimit="10"/>
            <path opacity="0.7" d="M23.0615 45.0686L35.7661 39.6454" stroke="#43AC4C" stroke-width="0.65" stroke-miterlimit="10"/>
            <path opacity="0.7" d="M39.7396 28.7606L35.7661 39.6454" stroke="#43AC4C" stroke-width="0.65" stroke-miterlimit="10"/>
            <path opacity="0.7" d="M17.8763 15.8267L23.0615 45.0686" stroke="#43AC4C" stroke-width="0.65" stroke-miterlimit="10"/>
            <path opacity="0.7" d="M27.632 25.8882L35.7661 39.6454" stroke="#43AC4C" stroke-width="0.65" stroke-miterlimit="10"/>
            <path opacity="0.7" d="M36.285 11.2177L39.7396 28.7606" stroke="#43AC4C" stroke-width="0.65" stroke-miterlimit="10"/>
            <path opacity="0.7" d="M41.8265 18.4674L39.7396 28.7606" stroke="#43AC4C" stroke-width="0.65" stroke-miterlimit="10"/>
            <path opacity="0.7" d="M27.632 25.8881L41.8266 18.4674" stroke="#43AC4C" stroke-width="0.65" stroke-miterlimit="10"/>
            <path opacity="0.7" d="M36.285 11.2177L8.59735 2.92871" stroke="#43AC4C" stroke-width="0.65" stroke-miterlimit="10"/>
            <path opacity="0.7" d="M2.87988 18.8048L27.6319 25.8881" stroke="#43AC4C" stroke-width="0.65" stroke-miterlimit="10"/>
            <path opacity="0.7" d="M42.6907 39.9288L35.7661 39.6454" stroke="#43AC4C" stroke-width="0.65" stroke-miterlimit="10"/>
            <path opacity="0.7" d="M39.7396 28.7606L42.6907 39.9288" stroke="#43AC4C" stroke-width="0.65" stroke-miterlimit="10"/>
        </g>
        <g opacity="0.7">
            <path opacity="0.7" d="M28.0641 25.0154H27.1999C26.9612 25.0154 26.7678 25.2108 26.7678 25.4518V26.3245C26.7678 26.5655 26.9612 26.7609 27.1999 26.7609H28.0641C28.3027 26.7609 28.4962 26.5655 28.4962 26.3245V25.4518C28.4962 25.2108 28.3027 25.0154 28.0641 25.0154Z" fill="#43AC4C"/>
            <path opacity="0.7" d="M23.4936 44.1958H22.6294C22.3908 44.1958 22.1973 44.3912 22.1973 44.6322V45.5049C22.1973 45.7459 22.3908 45.9413 22.6294 45.9413H23.4936C23.7323 45.9413 23.9257 45.7459 23.9257 45.5049V44.6322C23.9257 44.3912 23.7323 44.1958 23.4936 44.1958Z" fill="#43AC4C"/>
            <path opacity="0.7" d="M40.1717 27.8878H39.3075C39.0688 27.8878 38.8754 28.0832 38.8754 28.3242V29.197C38.8754 29.438 39.0688 29.6333 39.3075 29.6333H40.1717C40.4103 29.6333 40.6038 29.438 40.6038 29.197V28.3242C40.6038 28.0832 40.4103 27.8878 40.1717 27.8878Z" fill="#43AC4C"/>
            <path opacity="0.7" d="M3.31198 17.932H2.44778C2.20914 17.932 2.01569 18.1274 2.01569 18.3684V19.2411C2.01569 19.4822 2.20914 19.6775 2.44778 19.6775H3.31198C3.55062 19.6775 3.74408 19.4822 3.74408 19.2411V18.3684C3.74408 18.1274 3.55062 17.932 3.31198 17.932Z" fill="#43AC4C"/>
            <path opacity="0.7" d="M9.0317 2.05591H8.16751C7.92887 2.05591 7.73541 2.25128 7.73541 2.49229V3.36505C7.73541 3.60605 7.92887 3.80143 8.16751 3.80143H9.0317C9.27035 3.80143 9.4638 3.60605 9.4638 3.36505V2.49229C9.4638 2.25128 9.27035 2.05591 9.0317 2.05591Z" fill="#43AC4C"/>
            <path opacity="0.7" d="M11.6466 8.20569H10.7824C10.5437 8.20569 10.3503 8.40106 10.3503 8.64207V9.51483C10.3503 9.75583 10.5437 9.95121 10.7824 9.95121H11.6466C11.8852 9.95121 12.0787 9.75583 12.0787 9.51483V8.64207C12.0787 8.40106 11.8852 8.20569 11.6466 8.20569Z" fill="#43AC4C"/>
            <path opacity="0.7" d="M18.3084 14.9539H17.4442C17.2056 14.9539 17.0121 15.1492 17.0121 15.3902V16.263C17.0121 16.504 17.2056 16.6994 17.4442 16.6994H18.3084C18.5471 16.6994 18.7405 16.504 18.7405 16.263V15.3902C18.7405 15.1492 18.5471 14.9539 18.3084 14.9539Z" fill="#43AC4C"/>
            <path opacity="0.7" d="M36.7171 10.3448H35.8529C35.6143 10.3448 35.4208 10.5402 35.4208 10.7812V11.654C35.4208 11.895 35.6143 12.0904 35.8529 12.0904H36.7171C36.9558 12.0904 37.1492 11.895 37.1492 11.654V10.7812C37.1492 10.5402 36.9558 10.3448 36.7171 10.3448Z" fill="#43AC4C"/>
            <path opacity="0.7" d="M42.2586 17.5946H41.3944C41.1558 17.5946 40.9623 17.79 40.9623 18.031V18.9037C40.9623 19.1448 41.1558 19.3401 41.3944 19.3401H42.2586C42.4973 19.3401 42.6907 19.1448 42.6907 18.9037V18.031C42.6907 17.79 42.4973 17.5946 42.2586 17.5946Z" fill="#43AC4C"/>
            <path opacity="0.7" d="M36.1981 38.7726H35.334C35.0953 38.7726 34.9019 38.968 34.9019 39.209V40.0817C34.9019 40.3227 35.0953 40.5181 35.334 40.5181H36.1981C36.4368 40.5181 36.6302 40.3227 36.6302 40.0817V39.209C36.6302 38.968 36.4368 38.7726 36.1981 38.7726Z" fill="#43AC4C"/>
            <path opacity="0.7" d="M43.1228 39.056H42.2586C42.02 39.056 41.8265 39.2514 41.8265 39.4924V40.3652C41.8265 40.6062 42.02 40.8016 42.2586 40.8016H43.1228C43.3615 40.8016 43.5549 40.6062 43.5549 40.3652V39.4924C43.5549 39.2514 43.3615 39.056 43.1228 39.056Z" fill="#43AC4C"/>
        </g>
    </g>
    <g opacity="0.9">
        <g opacity="0.9">
            <path opacity="0.9" d="M17.3507 21.7897L38.0691 15.244" stroke="#F29121" stroke-width="0.65" stroke-miterlimit="10"/>
            <path opacity="0.9" d="M28.1642 4.86096L38.0691 15.2441" stroke="#F29121" stroke-width="0.65" stroke-miterlimit="10"/>
            <path opacity="0.9" d="M25.6185 49.5764L35.3451 42.9182" stroke="#F29121" stroke-width="0.65" stroke-miterlimit="10"/>
            <path opacity="0.9" d="M22.6517 32.9962L35.3451 42.9182" stroke="#F29121" stroke-width="0.65" stroke-miterlimit="10"/>
            <path opacity="0.9" d="M25.6185 49.5764L31.5743 29.3409" stroke="#F29121" stroke-width="0.65" stroke-miterlimit="10"/>
            <path opacity="0.9" d="M35.3451 42.9182L46.9182 19.5314" stroke="#F29121" stroke-width="0.65" stroke-miterlimit="10"/>
            <path opacity="0.9" d="M22.6517 32.9962L46.9182 19.5314" stroke="#F29121" stroke-width="0.65" stroke-miterlimit="10"/>
            <path opacity="0.9" d="M31.5743 29.3409L38.0691 15.244" stroke="#F29121" stroke-width="0.65" stroke-miterlimit="10"/>
            <path opacity="0.9" d="M46.9182 19.5314L16.7315 21.7133" stroke="#F29121" stroke-width="0.65" stroke-miterlimit="10"/>
            <path opacity="0.9" d="M28.1643 4.86096L4.31873 8.49596" stroke="#F29121" stroke-width="0.65" stroke-miterlimit="10"/>
            <path opacity="0.9" d="M20.0368 1.47559L16.7315 21.7133" stroke="#F29121" stroke-width="0.65" stroke-miterlimit="10"/>
            <path opacity="0.9" d="M4.31873 8.49585L16.7315 21.7132" stroke="#F29121" stroke-width="0.65" stroke-miterlimit="10"/>
            <path opacity="0.9" d="M43.7198 45.0686L31.5743 29.3409" stroke="#F29121" stroke-width="0.65" stroke-miterlimit="10"/>
        </g>
        <g opacity="0.9">
            <path opacity="0.9" d="M35.922 41.4651H34.7704C34.2932 41.4651 33.9062 41.8558 33.9062 42.3378V43.5008C33.9062 43.9828 34.2932 44.3735 34.7704 44.3735H35.922C36.3992 44.3735 36.7862 43.9828 36.7862 43.5008V42.3378C36.7862 41.8558 36.3992 41.4651 35.922 41.4651Z" fill="#39A935"/>
            <path opacity="0.9" d="M26.1953 48.1233H25.0438C24.5665 48.1233 24.1796 48.514 24.1796 48.9961V50.159C24.1796 50.641 24.5665 51.0317 25.0438 51.0317H26.1953C26.6726 51.0317 27.0595 50.641 27.0595 50.159V48.9961C27.0595 48.514 26.6726 48.1233 26.1953 48.1233Z" fill="#39A935"/>
            <path opacity="0.9" d="M23.2285 31.5409H22.077C21.5997 31.5409 21.2128 31.9316 21.2128 32.4137V33.5766C21.2128 34.0586 21.5997 34.4493 22.077 34.4493H23.2285C23.7058 34.4493 24.0927 34.0586 24.0927 33.5766V32.4137C24.0927 31.9316 23.7058 31.5409 23.2285 31.5409Z" fill="#39A935"/>
            <path opacity="0.9" d="M32.1511 27.8878H30.9996C30.5223 27.8878 30.1354 28.2786 30.1354 28.7606V29.9235C30.1354 30.4055 30.5223 30.7963 30.9996 30.7963H32.1511C32.6284 30.7963 33.0153 30.4055 33.0153 29.9235V28.7606C33.0153 28.2786 32.6284 27.8878 32.1511 27.8878Z" fill="#39A935"/>
            <path opacity="0.9" d="M47.495 18.076H46.3435C45.8662 18.076 45.4793 18.4668 45.4793 18.9488V20.1117C45.4793 20.5938 45.8662 20.9845 46.3435 20.9845H47.495C47.9723 20.9845 48.3592 20.5938 48.3592 20.1117V18.9488C48.3592 18.4668 47.9723 18.076 47.495 18.076Z" fill="#39A935"/>
            <path opacity="0.9" d="M38.646 13.791H37.4944C37.0172 13.791 36.6302 14.1818 36.6302 14.6638V15.8267C36.6302 16.3087 37.0172 16.6995 37.4944 16.6995H38.646C39.1232 16.6995 39.5102 16.3087 39.5102 15.8267V14.6638C39.5102 14.1818 39.1232 13.791 38.646 13.791Z" fill="#39A935"/>
            <path opacity="0.9" d="M28.7389 3.40784H27.5874C27.1101 3.40784 26.7232 3.79859 26.7232 4.2806V5.44353C26.7232 5.92554 27.1101 6.31629 27.5874 6.31629H28.7389C29.2162 6.31629 29.6031 5.92554 29.6031 5.44353V4.2806C29.6031 3.79859 29.2162 3.40784 28.7389 3.40784Z" fill="#39A935"/>
            <path opacity="0.9" d="M20.6137 0.0202637H19.4622C18.9849 0.0202637 18.598 0.411012 18.598 0.893024V2.05595C18.598 2.53797 18.9849 2.92871 19.4622 2.92871H20.6137C21.091 2.92871 21.4779 2.53797 21.4779 2.05595V0.893024C21.4779 0.411012 21.091 0.0202637 20.6137 0.0202637Z" fill="#39A935"/>
            <path opacity="0.9" d="M4.89559 7.04285H3.74408C3.2668 7.04285 2.87988 7.43359 2.87988 7.91561V9.07854C2.87988 9.56055 3.2668 9.9513 3.74408 9.9513H4.89559C5.37288 9.9513 5.75979 9.56055 5.75979 9.07854V7.91561C5.75979 7.43359 5.37288 7.04285 4.89559 7.04285Z" fill="#39A935"/>
            <path opacity="0.9" d="M17.3061 20.2579H16.1546C15.6773 20.2579 15.2904 20.6487 15.2904 21.1307V22.2936C15.2904 22.7756 15.6773 23.1664 16.1546 23.1664H17.3061C17.7834 23.1664 18.1703 22.7756 18.1703 22.2936V21.1307C18.1703 20.6487 17.7834 20.2579 17.3061 20.2579Z" fill="#39A935"/>
            <path opacity="0.9" d="M44.2944 43.6133H43.1429C42.6656 43.6133 42.2787 44.004 42.2787 44.486V45.649C42.2787 46.131 42.6656 46.5217 43.1429 46.5217H44.2944C44.7717 46.5217 45.1586 46.131 45.1586 45.649V44.486C45.1586 44.004 44.7717 43.6133 44.2944 43.6133Z" fill="#39A935"/>
        </g>
    </g>
    <path d="M17.0122 0.782837H14.4218C13.9445 0.782837 13.5576 1.17358 13.5576 1.6556V4.27163C13.5576 4.75364 13.9445 5.14439 14.4218 5.14439H17.0122C17.4894 5.14439 17.8764 4.75364 17.8764 4.27163V1.6556C17.8764 1.17358 17.4894 0.782837 17.0122 0.782837Z" fill="#EC8C13"/>
    <path d="M43.8712 21.3107H41.2809C40.8036 21.3107 40.4167 21.7014 40.4167 22.1834V24.7995C40.4167 25.2815 40.8036 25.6722 41.2809 25.6722H43.8712C44.3485 25.6722 44.7354 25.2815 44.7354 24.7995V22.1834C44.7354 21.7014 44.3485 21.3107 43.8712 21.3107Z" fill="#EC8C13"/>
    <path d="M25.026 37.4657H22.4357C21.9584 37.4657 21.5715 37.8564 21.5715 38.3385V40.9545C21.5715 41.4365 21.9584 41.8273 22.4357 41.8273H25.026C25.5033 41.8273 25.8902 41.4365 25.8902 40.9545V38.3385C25.8902 37.8564 25.5033 37.4657 25.026 37.4657Z" fill="#EC8C13"/>
    <path d="M32.1511 43.7595H29.5608C29.0835 43.7595 28.6966 44.1503 28.6966 44.6323V47.2483C28.6966 47.7303 29.0835 48.1211 29.5608 48.1211H32.1511C32.6284 48.1211 33.0153 47.7303 33.0153 47.2483V44.6323C33.0153 44.1503 32.6284 43.7595 32.1511 43.7595Z" fill="#EC8C13"/>
    <path d="M39.7396 34.0714H37.1492C36.6719 34.0714 36.285 34.4622 36.285 34.9442V37.5602C36.285 38.0422 36.6719 38.433 37.1492 38.433H39.7396C40.2169 38.433 40.6038 38.0422 40.6038 37.5602V34.9442C40.6038 34.4622 40.2169 34.0714 39.7396 34.0714Z" fill="#EC8C13"/>
    <path d="M28.4204 18.4675H25.8301C25.3528 18.4675 24.9659 18.8583 24.9659 19.3403V21.9563C24.9659 22.4383 25.3528 22.8291 25.8301 22.8291H28.4204C28.8977 22.8291 29.2846 22.4383 29.2846 21.9563V19.3403C29.2846 18.8583 28.8977 18.4675 28.4204 18.4675Z" fill="#EC8C13"/>
    <path d="M21.3309 24.2551H18.7405C18.2633 24.2551 17.8763 24.6459 17.8763 25.1279V27.7439C17.8763 28.2259 18.2633 28.6167 18.7405 28.6167H21.3309C21.8082 28.6167 22.1951 28.2259 22.1951 27.7439V25.1279C22.1951 24.6459 21.8082 24.2551 21.3309 24.2551Z" fill="#EC8C13"/>
    <path d="M35.2003 4.1344H32.61C32.1327 4.1344 31.7458 4.52515 31.7458 5.00716V7.62319C31.7458 8.1052 32.1327 8.49595 32.61 8.49595H35.2003C35.6776 8.49595 36.0645 8.1052 36.0645 7.62319V5.00716C36.0645 4.52515 35.6776 4.1344 35.2003 4.1344Z" fill="#EC8C13"/>
    <path d="M8.59737 18.8049H6.00702C5.52974 18.8049 5.14282 19.1957 5.14282 19.6777V22.2937C5.14282 22.7757 5.52974 23.1665 6.00702 23.1665H8.59737C9.07466 23.1665 9.46157 22.7757 9.46157 22.2937V19.6777C9.46157 19.1957 9.07466 18.8049 8.59737 18.8049Z" fill="#EC8C13"/>
    <path d="M3.45455 11.6091H0.864195C0.386913 11.6091 0 11.9999 0 12.4819V15.0979C0 15.5799 0.386913 15.9707 0.864195 15.9707H3.45455C3.93183 15.9707 4.31875 15.5799 4.31875 15.0979V12.4819C4.31875 11.9999 3.93183 11.6091 3.45455 11.6091Z" fill="#EC8C13"/>
    <path d="M48.2145 34.4493H45.6241C45.1469 34.4493 44.7599 34.8401 44.7599 35.3221V37.9381C44.7599 38.4201 45.1469 38.8109 45.6241 38.8109H48.2145C48.6918 38.8109 49.0787 38.4201 49.0787 37.9381V35.3221C49.0787 34.8401 48.6918 34.4493 48.2145 34.4493Z" fill="#EC8C13"/>
    <path d="M58.2441 8.52747H57.3955C57.2245 8.52747 57.0859 8.66745 57.0859 8.84013V44.5018C57.0859 44.6745 57.2245 44.8145 57.3955 44.8145H58.2441C58.4151 44.8145 58.5537 44.6745 58.5537 44.5018V8.84013C58.5537 8.66745 58.4151 8.52747 58.2441 8.52747Z" fill="#231F20"/>
    <path d="M71.0845 25.3033C69.5231 25.3033 67.7769 25.0446 66.4918 23.9851C64.9861 22.7232 64.5451 20.7752 64.5451 18.6788C64.5451 16.8793 65.0596 14.6524 67.0241 13.3163C68.5676 12.2771 70.5321 12.0724 72.4609 12.0724C73.9131 12.0724 75.3631 12.1646 76.9623 12.2951V14.8931C75.6215 14.7806 73.9131 14.6884 72.6636 14.6884C69.2469 14.6884 67.8682 15.9121 67.8682 18.6766C67.8682 21.4411 69.1534 22.6827 71.6168 22.6827C73.3808 22.6827 75.2718 22.3296 77.2385 21.9404V24.4822C75.274 24.8894 73.216 25.2988 71.0845 25.2988V25.3033Z" fill="#39A935"/>
    <path d="M93.0903 24.0031C91.5646 25.0243 89.6001 25.301 87.1189 25.301C84.6376 25.301 82.6553 25.0221 81.1296 23.9829C79.4035 22.8334 78.8154 20.9395 78.8154 18.6766C78.8154 16.4137 79.4035 14.5017 81.1296 13.3523C82.6553 12.3311 84.6198 12.0724 87.101 12.0724C89.5822 12.0724 91.5646 12.3513 93.0903 13.3523C94.7986 14.522 95.4044 16.4317 95.4044 18.6766C95.4044 20.9215 94.7986 22.8312 93.0903 24.0009V24.0031ZM87.1189 14.6344C83.7022 14.6344 82.1408 15.5994 82.1408 18.5866C82.1408 21.5738 83.6665 22.7412 87.101 22.7412C90.5355 22.7412 92.0791 21.7582 92.0791 18.771C92.0791 15.7839 90.5534 14.6344 87.1189 14.6344Z" fill="#39A935"/>
    <path d="M107.069 24.5969C105.948 25.1525 104.331 25.301 102.917 25.301C101.209 25.301 99.5561 25.2088 97.7186 25.0963V22.3881C99.2243 22.5545 101.153 22.703 102.494 22.703C103.596 22.703 104.552 22.6287 105.102 22.5185C105.764 22.3701 105.911 22.0169 105.911 21.4793C105.911 20.9035 105.69 20.6065 105.066 20.4221C104.349 20.2376 103.285 20.0892 102.329 19.9205C99.0951 19.3829 97.6807 18.4921 97.6807 16.0988C97.6807 14.6142 98.2131 13.4085 99.6653 12.7045C100.768 12.1669 102.273 12.0746 103.596 12.0746C105.122 12.0746 106.646 12.1669 108.28 12.2793V14.9134C106.81 14.7469 104.993 14.6164 103.541 14.6164C102.879 14.6164 102.126 14.6524 101.556 14.7649C100.95 14.9134 100.766 15.2283 100.766 15.7299C100.766 16.2675 100.986 16.5644 101.592 16.7129C102.289 16.8973 103.3 17.0278 104.2 17.1762C107.434 17.6778 109.069 18.5304 109.069 21.1104C109.069 22.6512 108.519 23.8749 107.067 24.5992L107.069 24.5969Z" fill="#39A935"/>
    <path d="M122.609 25.0423L115.261 16.3777H115.205V25.0423H112.229V12.3356H116.014L123.105 20.9799H123.179V12.3356H126.137V25.0446H122.609V25.0423Z" fill="#39A935"/>
    <path d="M138.775 12.3356H134.897L128.431 25.0423H131.941L133.133 22.5478L134.389 19.8665H134.382L134.547 19.5268H134.549L136.699 15.0978H136.772L139.086 19.8665H139.082L140.416 22.6647L141.585 25.0423H145.24L138.775 12.3356Z" fill="#39A935"/>
    <path d="M74.5331 41.8385L70.3236 33.5889H68.5587L64.3372 41.8385H65.9948L67.0203 39.755H71.7665L72.8159 41.8385H74.5331ZM71.1941 38.5627H67.5927L69.3696 34.9979H69.4173L71.1941 38.5627Z" fill="#231F20"/>
    <path d="M84.7495 38.7313V37.4788H80.1703V34.8896H85.2265V33.5889H78.6319V41.8385H80.1703V38.7313H84.7495Z" fill="#231F20"/>
    <path d="M98.1196 41.8385L95.6034 38.6229C96.152 38.5146 96.6051 38.358 96.951 38.069C97.5353 37.6234 97.7738 37.0092 97.7738 36.1541C97.7738 35.299 97.5114 34.6607 96.939 34.2272C96.1639 33.6491 95.0668 33.5889 93.4689 33.5889H89.9868V41.8385H91.5251V38.8036H93.1827C93.4212 38.8036 93.6597 38.8036 93.8982 38.7916L96.2355 41.8385H98.1196ZM96.2235 36.1902C96.2235 37.4548 95.3292 37.6474 93.5523 37.6474H91.5251V34.7812H93.5404C95.1622 34.7812 96.2235 34.8896 96.2235 36.1902Z" fill="#231F20"/>
    <path d="M104.359 41.8385V33.5889H102.821V41.8385H104.359Z" fill="#231F20"/>
    <path d="M119.387 37.7197C119.387 36.2384 118.982 35.01 117.908 34.2633C116.966 33.613 115.726 33.4203 114.14 33.4203C112.626 33.4203 111.362 33.6009 110.42 34.2513C109.346 35.01 108.941 36.2384 108.941 37.7077C108.941 39.189 109.346 40.4053 110.42 41.152C111.278 41.7542 112.399 41.971 113.794 41.995C113.914 42.0071 114.033 42.0071 114.164 42.0071L115.905 44.0665H117.849L115.762 41.8987C116.585 41.8024 117.312 41.5856 117.908 41.1641C118.982 40.4174 119.387 39.201 119.387 37.7197ZM117.813 37.7558C117.813 39.9959 116.704 40.7425 114.152 40.7425C111.588 40.7425 110.515 39.8152 110.515 37.6595C110.515 35.4315 111.624 34.6848 114.176 34.6848C116.74 34.6848 117.813 35.6121 117.813 37.7558Z" fill="#231F20"/>
    <path d="M128.048 42.0071C129.253 42.0071 130.445 41.8867 131.351 41.1761C132.15 40.5619 132.317 39.6948 132.317 38.346V33.5889H130.815V38.2857C130.815 39.0926 130.719 39.6948 130.254 40.1404C129.753 40.6101 128.931 40.7425 128.072 40.7425C127.178 40.7425 126.379 40.598 125.902 40.1283C125.425 39.6707 125.329 39.0565 125.329 38.2376V33.5889H123.791V38.346C123.791 39.7068 123.958 40.5499 124.745 41.1641C125.639 41.8746 126.832 42.0071 128.048 42.0071Z" fill="#231F20"/>
    <path d="M144.038 41.8385V40.586H138.994V38.2135H143.478V37.0092H138.994V34.8414H143.836V33.5889H137.456V41.8385H144.038Z" fill="#231F20"/>
    <path d="M67.4787 48.5867V46.5836H66.9633L66.2191 48.2358H66.2047L65.4489 46.5836H64.9335V48.5867H65.2636V47.0281H65.2752L65.9962 48.5867H66.39L67.0965 47.0281H67.1081V48.5867H67.4787Z" fill="#231F20"/>
    <path d="M71.3506 47.8469C71.3506 47.5808 71.2811 47.3614 71.0814 47.224C70.9047 47.1041 70.676 47.069 70.3951 47.069C70.1114 47.069 69.8797 47.1041 69.7031 47.224C69.5062 47.3614 69.4338 47.5837 69.4338 47.8498C69.4338 48.1188 69.5062 48.3381 69.7031 48.4726C69.8797 48.5925 70.1114 48.6276 70.3951 48.6276C70.6731 48.6276 70.9047 48.5925 71.0814 48.4726C71.2782 48.3381 71.3506 48.1159 71.3506 47.8469ZM70.9974 47.8615C70.9974 48.2299 70.8121 48.3586 70.3951 48.3586C69.9695 48.3586 69.79 48.2007 69.79 47.8381C69.79 47.4696 69.9724 47.3381 70.3951 47.3381C70.815 47.3381 70.9974 47.4989 70.9974 47.8615Z" fill="#231F20"/>
    <path d="M74.9927 48.5867V47.6773C74.9927 47.4755 74.9551 47.3293 74.8334 47.2211C74.6974 47.0983 74.5178 47.069 74.3383 47.069C74.0951 47.069 73.8026 47.1363 73.5507 47.2035L73.5363 47.11H73.2554V48.5867H73.5971V47.4579C73.8084 47.4082 74.0459 47.3585 74.2457 47.3585C74.4976 47.3585 74.651 47.455 74.651 47.7416V48.5867H74.9927Z" fill="#231F20"/>
    <path d="M78.5659 48.5311V48.2796C78.3255 48.3177 78.0533 48.3586 77.7928 48.3586C77.3382 48.3586 77.2281 48.1802 77.2194 47.9317H78.6382C78.6353 47.6305 78.6122 47.379 78.3805 47.2182C78.201 47.0895 77.9636 47.069 77.7609 47.069C77.5351 47.069 77.315 47.0983 77.1413 47.2211C76.9386 47.3673 76.8662 47.6188 76.8662 47.8498C76.8662 48.0983 76.927 48.3177 77.0978 48.4639C77.2571 48.5955 77.4656 48.6276 77.7146 48.6276C77.9983 48.6276 78.2966 48.5779 78.5659 48.5311ZM78.2966 47.6948H77.2223C77.2484 47.4492 77.3874 47.303 77.7609 47.303C78.1373 47.303 78.285 47.4287 78.2966 47.6948Z" fill="#231F20"/>
    <path d="M80.6378 49.1686C80.9766 49.1686 81.1416 49.037 81.3009 48.7124L82.0797 47.11H81.7178L81.2053 48.227H81.1937L80.6262 47.11H80.2266L81.0258 48.5867L80.9852 48.6715C80.9042 48.8382 80.8028 48.8908 80.6175 48.8908C80.5422 48.8908 80.4612 48.885 80.3772 48.8762V49.1511C80.4641 49.1598 80.5567 49.1686 80.6378 49.1686Z" fill="#231F20"/>
    <path d="M87.4686 48.5808V48.3235C87.3818 48.3381 87.266 48.3528 87.1646 48.3528C87.0314 48.3528 86.9243 48.3118 86.8809 48.1978C86.849 48.1188 86.8403 48.0165 86.8403 47.8966V47.3761H87.4368V47.11H86.8403V46.6626H86.5392L86.4987 47.11H86.1859V47.3761H86.4987V47.9609C86.4987 48.151 86.5276 48.2884 86.5884 48.3995C86.6782 48.5604 86.8548 48.6276 87.0662 48.6276C87.1965 48.6276 87.3441 48.6042 87.4686 48.5808Z" fill="#231F20"/>
    <path d="M89.6812 48.5867V47.455C89.9331 47.3936 90.0808 47.3673 90.2864 47.3673C90.3211 47.3673 90.3646 47.3702 90.4022 47.3702V47.069C90.3819 47.069 90.3674 47.069 90.3588 47.069C90.0982 47.069 89.9129 47.1246 89.6349 47.2035L89.6204 47.11H89.3395V48.5867H89.6812Z" fill="#231F20"/>
    <path d="M93.7378 48.5867V47.7153C93.7378 47.4989 93.7117 47.3351 93.5438 47.2094C93.3874 47.0924 93.1326 47.069 92.8836 47.069C92.6954 47.069 92.4753 47.0807 92.2784 47.0983V47.3585C92.4608 47.341 92.6491 47.3322 92.8141 47.3322C93.2368 47.3322 93.3961 47.4199 93.3961 47.6831V47.7153C93.2079 47.7007 92.9907 47.6919 92.8286 47.6919C92.6433 47.6919 92.4522 47.7007 92.3016 47.7679C92.1279 47.8439 92.0555 47.9989 92.0555 48.1656C92.0555 48.3147 92.1134 48.4434 92.2205 48.5224C92.3421 48.6101 92.513 48.6276 92.6664 48.6276C92.9125 48.6276 93.2108 48.5604 93.454 48.499L93.4656 48.5867H93.7378ZM93.3961 48.2796C93.1818 48.3294 92.9444 48.3761 92.7388 48.3761C92.4898 48.3761 92.3885 48.2972 92.3885 48.1481C92.3885 47.9989 92.4956 47.9258 92.8257 47.9258C93.0197 47.9258 93.2108 47.9317 93.3961 47.9463V48.2796Z" fill="#231F20"/>
    <path d="M97.5026 48.5867V47.6773C97.5026 47.4755 97.4649 47.3293 97.3433 47.2211C97.2072 47.0983 97.0277 47.069 96.8482 47.069C96.605 47.069 96.3125 47.1363 96.0606 47.2035L96.0461 47.11H95.7653V48.5867H96.107V47.4579C96.3183 47.4082 96.5558 47.3585 96.7555 47.3585C97.0075 47.3585 97.1609 47.455 97.1609 47.7416V48.5867H97.5026Z" fill="#231F20"/>
    <path d="M100.772 48.1598C100.772 47.882 100.618 47.7767 100.259 47.7153C100.097 47.686 99.9668 47.6714 99.8538 47.6363C99.7641 47.61 99.7235 47.572 99.7235 47.4901C99.7235 47.4258 99.7496 47.3673 99.8394 47.3439C99.9233 47.3264 100.039 47.3234 100.132 47.3234C100.308 47.3234 100.505 47.3351 100.676 47.3556V47.0983C100.491 47.0807 100.314 47.069 100.143 47.069C99.9986 47.069 99.7872 47.0778 99.6512 47.1421C99.4774 47.2211 99.4224 47.3585 99.4224 47.5164C99.4224 47.7825 99.5701 47.8878 99.9204 47.9492C100.085 47.9814 100.222 47.996 100.334 48.034C100.424 48.0603 100.465 48.0983 100.465 48.1861C100.465 48.2563 100.439 48.3177 100.343 48.3411C100.256 48.3615 100.123 48.3644 99.9986 48.3644C99.8278 48.3644 99.599 48.3528 99.4253 48.3323V48.6013C99.6222 48.6159 99.8365 48.6276 100.019 48.6276C100.178 48.6276 100.392 48.6189 100.537 48.5545C100.714 48.4726 100.772 48.3323 100.772 48.1598Z" fill="#231F20"/>
    <path d="M103.108 48.5867V47.3761H103.708V47.11H103.108C103.108 46.8322 103.195 46.7269 103.522 46.7269C103.632 46.7269 103.757 46.7357 103.873 46.7474V46.4725C103.728 46.4579 103.598 46.4491 103.464 46.4491C103.273 46.4491 103.088 46.4783 102.952 46.5924C102.79 46.7327 102.764 46.9199 102.764 47.11H102.454V47.3761H102.764V48.5867H103.108Z" fill="#231F20"/>
    <path d="M106.953 48.5311V48.2796C106.713 48.3177 106.44 48.3586 106.18 48.3586C105.725 48.3586 105.615 48.1802 105.607 47.9317H107.025C107.022 47.6305 106.999 47.379 106.768 47.2182C106.588 47.0895 106.351 47.069 106.148 47.069C105.922 47.069 105.702 47.0983 105.528 47.2211C105.326 47.3673 105.253 47.6188 105.253 47.8498C105.253 48.0983 105.314 48.3177 105.485 48.4639C105.644 48.5955 105.853 48.6276 106.102 48.6276C106.385 48.6276 106.684 48.5779 106.953 48.5311ZM106.684 47.6948H105.609C105.635 47.4492 105.774 47.303 106.148 47.303C106.524 47.303 106.672 47.4287 106.684 47.6948Z" fill="#231F20"/>
    <path d="M109.295 48.5867V47.455C109.547 47.3936 109.695 47.3673 109.9 47.3673C109.935 47.3673 109.978 47.3702 110.016 47.3702V47.069C109.996 47.069 109.981 47.069 109.972 47.069C109.712 47.069 109.527 47.1246 109.249 47.2035L109.234 47.11H108.953V48.5867H109.295Z" fill="#231F20"/>
    <path d="M117.417 48.5867V47.6773C117.417 47.4755 117.38 47.3293 117.27 47.2211C117.139 47.0983 116.968 47.069 116.795 47.069C116.557 47.069 116.265 47.1421 115.949 47.224C115.92 47.2006 115.894 47.1801 115.857 47.1568C115.741 47.0866 115.605 47.069 115.469 47.069C115.237 47.069 114.959 47.1363 114.719 47.2006L114.704 47.11H114.423V48.5867H114.765V47.4579C114.962 47.4082 115.185 47.3585 115.37 47.3585C115.608 47.3585 115.749 47.455 115.749 47.7416V48.5867H116.094V47.6773C116.094 47.6012 116.085 47.5281 116.065 47.4667C116.3 47.4082 116.517 47.3585 116.696 47.3585C116.931 47.3585 117.076 47.455 117.076 47.7416V48.5867H117.417Z" fill="#231F20"/>
    <path d="M121.036 48.5867V47.7153C121.036 47.4989 121.009 47.3351 120.842 47.2094C120.685 47.0924 120.43 47.069 120.181 47.069C119.993 47.069 119.773 47.0807 119.576 47.0983V47.3585C119.759 47.341 119.947 47.3322 120.112 47.3322C120.535 47.3322 120.694 47.4199 120.694 47.6831V47.7153C120.506 47.7007 120.288 47.6919 120.126 47.6919C119.941 47.6919 119.75 47.7007 119.599 47.7679C119.426 47.8439 119.353 47.9989 119.353 48.1656C119.353 48.3147 119.411 48.4434 119.518 48.5224C119.64 48.6101 119.811 48.6276 119.964 48.6276C120.21 48.6276 120.509 48.5604 120.752 48.499L120.763 48.5867H121.036ZM120.694 48.2796C120.48 48.3294 120.242 48.3761 120.037 48.3761C119.788 48.3761 119.686 48.2972 119.686 48.1481C119.686 47.9989 119.793 47.9258 120.123 47.9258C120.317 47.9258 120.509 47.9317 120.694 47.9463V48.2796Z" fill="#231F20"/>
    <path d="M124.731 48.5867V46.4871H124.389V47.1451C124.21 47.0953 124.027 47.069 123.848 47.069C123.633 47.069 123.41 47.1012 123.237 47.2035C123.011 47.3322 122.91 47.5691 122.91 47.8498C122.91 48.0983 122.965 48.3294 123.141 48.4756C123.289 48.5984 123.477 48.6276 123.66 48.6276C123.897 48.6276 124.204 48.5545 124.438 48.496L124.453 48.5867H124.731ZM124.389 48.2416C124.169 48.2913 123.937 48.3381 123.741 48.3381C123.437 48.3381 123.266 48.1948 123.266 47.8439C123.266 47.4901 123.454 47.3381 123.888 47.3381C124.062 47.3381 124.239 47.3673 124.389 47.4199V48.2416Z" fill="#231F20"/>
    <path d="M128.314 48.5311V48.2796C128.074 48.3177 127.802 48.3586 127.541 48.3586C127.086 48.3586 126.976 48.1802 126.968 47.9317H128.387C128.384 47.6305 128.36 47.379 128.129 47.2182C127.949 47.0895 127.712 47.069 127.509 47.069C127.283 47.069 127.063 47.0983 126.89 47.2211C126.687 47.3673 126.614 47.6188 126.614 47.8498C126.614 48.0983 126.675 48.3177 126.846 48.4639C127.005 48.5955 127.214 48.6276 127.463 48.6276C127.747 48.6276 128.045 48.5779 128.314 48.5311ZM128.045 47.6948H126.971C126.997 47.4492 127.136 47.303 127.509 47.303C127.886 47.303 128.033 47.4287 128.045 47.6948Z" fill="#231F20"/>
    <path d="M134.409 48.5311V48.2796C134.169 48.3177 133.897 48.3586 133.636 48.3586C133.181 48.3586 133.071 48.1802 133.063 47.9317H134.481C134.479 47.6305 134.455 47.379 134.224 47.2182C134.044 47.0895 133.807 47.069 133.604 47.069C133.378 47.069 133.158 47.0983 132.984 47.2211C132.782 47.3673 132.709 47.6188 132.709 47.8498C132.709 48.0983 132.77 48.3177 132.941 48.4639C133.1 48.5955 133.309 48.6276 133.558 48.6276C133.842 48.6276 134.14 48.5779 134.409 48.5311ZM134.14 47.6948H133.066C133.092 47.4492 133.231 47.303 133.604 47.303C133.98 47.303 134.128 47.4287 134.14 47.6948Z" fill="#231F20"/>
    <path d="M138.002 48.5867V47.7153C138.002 47.4989 137.976 47.3351 137.808 47.2094C137.652 47.0924 137.397 47.069 137.148 47.069C136.96 47.069 136.739 47.0807 136.543 47.0983V47.3585C136.725 47.341 136.913 47.3322 137.078 47.3322C137.501 47.3322 137.66 47.4199 137.66 47.6831V47.7153C137.472 47.7007 137.255 47.6919 137.093 47.6919C136.907 47.6919 136.716 47.7007 136.566 47.7679C136.392 47.8439 136.32 47.9989 136.32 48.1656C136.32 48.3147 136.378 48.4434 136.485 48.5224C136.606 48.6101 136.777 48.6276 136.931 48.6276C137.177 48.6276 137.475 48.5604 137.718 48.499L137.73 48.5867H138.002ZM137.66 48.2796C137.446 48.3294 137.209 48.3761 137.003 48.3761C136.754 48.3761 136.653 48.2972 136.653 48.1481C136.653 47.9989 136.76 47.9258 137.09 47.9258C137.284 47.9258 137.475 47.9317 137.66 47.9463V48.2796Z" fill="#231F20"/>
    <path d="M141.272 48.1598C141.272 47.882 141.118 47.7767 140.759 47.7153C140.597 47.686 140.467 47.6714 140.354 47.6363C140.264 47.61 140.223 47.572 140.223 47.4901C140.223 47.4258 140.249 47.3673 140.339 47.3439C140.423 47.3264 140.539 47.3234 140.632 47.3234C140.808 47.3234 141.005 47.3351 141.176 47.3556V47.0983C140.991 47.0807 140.814 47.069 140.643 47.069C140.498 47.069 140.287 47.0778 140.151 47.1421C139.977 47.2211 139.922 47.3585 139.922 47.5164C139.922 47.7825 140.07 47.8878 140.42 47.9492C140.585 47.9814 140.721 47.996 140.834 48.034C140.924 48.0603 140.965 48.0983 140.965 48.1861C140.965 48.2563 140.939 48.3177 140.843 48.3411C140.756 48.3615 140.623 48.3644 140.498 48.3644C140.328 48.3644 140.099 48.3528 139.925 48.3323V48.6013C140.122 48.6159 140.336 48.6276 140.519 48.6276C140.678 48.6276 140.892 48.6189 141.037 48.5545C141.214 48.4726 141.272 48.3323 141.272 48.1598Z" fill="#231F20"/>
    <path d="M143.303 49.1686C143.641 49.1686 143.806 49.037 143.966 48.7124L144.745 47.11H144.383L143.87 48.227H143.859L143.291 47.11H142.891L143.691 48.5867L143.65 48.6715C143.569 48.8382 143.468 48.8908 143.282 48.8908C143.207 48.8908 143.126 48.885 143.042 48.8762V49.1511C143.129 49.1598 143.221 49.1686 143.303 49.1686Z" fill="#231F20"/>
    <path d="M137.68 54.561H137.271V52.712H137.68V54.561Z" fill="#231F20"/>
    <path d="M139.794 54.0076C139.794 54.2434 139.698 54.4071 139.508 54.4989C139.37 54.5655 139.175 54.5988 138.922 54.5988C138.751 54.5988 138.507 54.5889 138.19 54.5691V54.2236C138.455 54.2524 138.684 54.2668 138.877 54.2668C139.041 54.2668 139.167 54.2569 139.256 54.2371C139.31 54.2227 139.346 54.2002 139.366 54.1696C139.387 54.139 139.398 54.0994 139.398 54.0508C139.398 54.0022 139.387 53.9635 139.363 53.9347C139.342 53.906 139.305 53.8826 139.251 53.8646C139.21 53.8538 139.073 53.8277 138.839 53.7863C138.604 53.7467 138.436 53.6882 138.334 53.6108C138.235 53.5335 138.185 53.4111 138.185 53.2437C138.185 53.0152 138.279 52.855 138.468 52.7633C138.593 52.7039 138.777 52.6742 139.021 52.6742C139.176 52.6742 139.395 52.6841 139.679 52.7039V53.0386C139.442 53.0116 139.22 52.9981 139.013 52.9981C138.892 52.9981 138.79 53.0071 138.709 53.0251C138.618 53.0485 138.572 53.1061 138.572 53.1979C138.572 53.2446 138.583 53.2824 138.604 53.3112C138.626 53.3382 138.662 53.3589 138.714 53.3733C138.78 53.3913 138.91 53.4156 139.104 53.4462C139.346 53.484 139.522 53.5434 139.631 53.6243C139.739 53.7035 139.794 53.8313 139.794 54.0076Z" fill="#231F20"/>
    <path d="M142.328 53.6324C142.328 53.9851 142.218 54.2335 141.999 54.3774C141.81 54.4998 141.525 54.561 141.144 54.561H140.275V52.712H141.141C141.523 52.712 141.809 52.7723 141.999 52.8928C142.218 53.035 142.328 53.2815 142.328 53.6324ZM141.914 53.6378C141.914 53.4201 141.855 53.2644 141.737 53.1709C141.62 53.0773 141.422 53.0305 141.144 53.0305H140.684V54.2398H141.141C141.421 54.2398 141.62 54.1957 141.737 54.1075C141.855 54.0175 141.914 53.861 141.914 53.6378Z" fill="#231F20"/>
    <path d="M144.648 54.4773C144.247 54.5583 143.91 54.5988 143.638 54.5988C143.337 54.5988 143.109 54.5349 142.954 54.4071C142.763 54.247 142.668 53.9896 142.668 53.6351C142.668 53.4786 142.696 53.3301 142.753 53.1898C142.812 53.0494 142.907 52.936 143.039 52.8496C143.217 52.7327 143.486 52.6742 143.846 52.6742C144.032 52.6742 144.274 52.685 144.573 52.7066V53.0386C144.302 53.0188 144.065 53.0089 143.862 53.0089C143.591 53.0089 143.395 53.0593 143.272 53.1601C143.149 53.259 143.087 53.4201 143.087 53.6432C143.087 53.8646 143.134 54.0265 143.229 54.1291C143.323 54.2299 143.477 54.2803 143.689 54.2803C143.842 54.2803 144.034 54.2614 144.266 54.2236V53.8457H143.697V53.5407H144.648V54.4773Z" fill="#231F20"/>
    <path d="M134.654 52.7711L134.792 52.7039L134.416 54.329C134.573 53.9758 134.726 53.7992 134.877 53.7992C134.907 53.7992 134.934 53.8075 134.958 53.8242C134.982 53.84 135.001 53.8638 135.014 53.8954C135.028 53.927 135.035 53.9604 135.035 53.9956C135.035 54.0623 135.019 54.1366 134.988 54.2183C134.956 54.2991 134.917 54.3685 134.869 54.4265C134.784 54.5311 134.69 54.5834 134.587 54.5834C134.555 54.5834 134.524 54.5777 134.494 54.5662C134.465 54.5557 134.432 54.5377 134.395 54.5122L134.304 54.5676L134.654 52.7711ZM134.416 54.4265C134.455 54.5091 134.511 54.5504 134.585 54.5504C134.637 54.5504 134.685 54.5276 134.729 54.4819C134.775 54.4362 134.815 54.3699 134.849 54.2829C134.869 54.2337 134.886 54.1805 134.899 54.1234C134.912 54.0654 134.919 54.0193 134.919 53.985C134.919 53.9024 134.89 53.8611 134.832 53.8611C134.794 53.8611 134.751 53.8848 134.702 53.9323C134.653 53.9797 134.604 54.0461 134.554 54.1313C134.506 54.2157 134.46 54.3141 134.416 54.4265Z" fill="#EC8C13"/>
    <path d="M135.026 55.0289L135.09 54.9419C135.14 54.9964 135.197 55.0236 135.261 55.0236C135.328 55.0236 135.381 54.9968 135.422 54.9432C135.463 54.8896 135.497 54.8017 135.523 54.6796L135.583 54.4068C135.487 54.5201 135.401 54.5768 135.323 54.5768C135.278 54.5768 135.242 54.5627 135.216 54.5346C135.191 54.5065 135.178 54.4687 135.178 54.4213C135.178 54.3896 135.182 54.3549 135.19 54.3171L135.279 53.844L135.405 53.7899L135.279 54.3211C135.268 54.3642 135.263 54.3962 135.263 54.4173C135.263 54.4472 135.272 54.4718 135.289 54.4911C135.308 54.5096 135.331 54.5188 135.361 54.5188C135.393 54.5188 135.428 54.5047 135.467 54.4766C135.506 54.4476 135.549 54.4046 135.597 54.3475L135.709 53.844L135.832 53.7899L135.642 54.5649C135.619 54.6581 135.597 54.731 135.576 54.7837C135.556 54.8364 135.533 54.8804 135.506 54.9155C135.421 55.0262 135.317 55.0816 135.194 55.0816C135.123 55.0816 135.067 55.064 135.026 55.0289Z" fill="#EC8C13"/>
</svg>

